# xmcd CD database file
#
# Track frame offsets:
#	150
#	20510
#	41000
#	57845
#	79382
#	101530
#	123800
#	145900
#	163812
#	183242
#	202192
#
# Disc length: 2929 seconds
#
# Revision: 0
# Processed by: cddbd v1.5.1PL2 Copyright (c) Steve Scherf et al.
# Submitted via: CDex 1.51
#
DISCID=970b6f0b
DTITLE=岩田さゆり - Thank You For...
DYEAR=2005
DGENRE=JPop
TTITLE0=Thank You For Everything
TTITLE1=I・N・G
TTITLE2=世界≒セカイ
TTITLE3=ひとりじゃない
TTITLE4=ヒトリゴト
TTITLE5=最後のラブレター
TTITLE6=First Love
TTITLE7=そう、きっときっとね
TTITLE8=くもりぞら
TTITLE9=不機嫌になる私
TTITLE10=春風
EXTD=YEAR: 2005
EXTT0=
EXTT1=
EXTT2=
EXTT3=
EXTT4=
EXTT5=
EXTT6=
EXTT7=
EXTT8=
EXTT9=
EXTT10=
PLAYORDER=
